{
    "asset" : {
        "generator" : "Khronos glTF Blender I/O v1.6.16",
        "version" : "2.0"
    },
    "scene" : 0,
    "scenes" : [
        {
            "name" : "Scene",
            "nodes" : [
                2
            ]
        }
    ],
    "nodes" : [
        {
            "name" : "Bone"
        },
        {
            "mesh" : 0,
            "name" : "Icosphere",
            "skin" : 0
        },
        {
            "children" : [
                1,
                0
            ],
            "name" : "root",
            "scale" : [
                0.7182666659355164,
                0.7182666659355164,
                0.7182666659355164
            ],
            "translation" : [
                0,
                0.27722030878067017,
                0
            ]
        }
    ],
    "animations" : [
        {
            "channels" : [
                {
                    "sampler" : 0,
                    "target" : {
                        "node" : 0,
                        "path" : "translation"
                    }
                },
                {
                    "sampler" : 1,
                    "target" : {
                        "node" : 0,
                        "path" : "rotation"
                    }
                },
                {
                    "sampler" : 2,
                    "target" : {
                        "node" : 0,
                        "path" : "scale"
                    }
                }
            ],
            "name" : "dying",
            "samplers" : [
                {
                    "input" : 25,
                    "interpolation" : "LINEAR",
                    "output" : 26
                },
                {
                    "input" : 25,
                    "interpolation" : "LINEAR",
                    "output" : 27
                },
                {
                    "input" : 25,
                    "interpolation" : "LINEAR",
                    "output" : 28
                }
            ]
        },
        {
            "channels" : [
                {
                    "sampler" : 0,
                    "target" : {
                        "node" : 0,
                        "path" : "translation"
                    }
                },
                {
                    "sampler" : 1,
                    "target" : {
                        "node" : 0,
                        "path" : "rotation"
                    }
                },
                {
                    "sampler" : 2,
                    "target" : {
                        "node" : 0,
                        "path" : "scale"
                    }
                }
            ],
            "name" : "hitReact",
            "samplers" : [
                {
                    "input" : 29,
                    "interpolation" : "LINEAR",
                    "output" : 30
                },
                {
                    "input" : 29,
                    "interpolation" : "LINEAR",
                    "output" : 31
                },
                {
                    "input" : 29,
                    "interpolation" : "LINEAR",
                    "output" : 32
                }
            ]
        },
        {
            "channels" : [
                {
                    "sampler" : 0,
                    "target" : {
                        "node" : 0,
                        "path" : "translation"
                    }
                },
                {
                    "sampler" : 1,
                    "target" : {
                        "node" : 0,
                        "path" : "rotation"
                    }
                },
                {
                    "sampler" : 2,
                    "target" : {
                        "node" : 0,
                        "path" : "scale"
                    }
                }
            ],
            "name" : "idle",
            "samplers" : [
                {
                    "input" : 29,
                    "interpolation" : "LINEAR",
                    "output" : 33
                },
                {
                    "input" : 29,
                    "interpolation" : "LINEAR",
                    "output" : 34
                },
                {
                    "input" : 29,
                    "interpolation" : "LINEAR",
                    "output" : 35
                }
            ]
        },
        {
            "channels" : [
                {
                    "sampler" : 0,
                    "target" : {
                        "node" : 0,
                        "path" : "translation"
                    }
                },
                {
                    "sampler" : 1,
                    "target" : {
                        "node" : 0,
                        "path" : "rotation"
                    }
                },
                {
                    "sampler" : 2,
                    "target" : {
                        "node" : 0,
                        "path" : "scale"
                    }
                }
            ],
            "name" : "move_loop",
            "samplers" : [
                {
                    "input" : 29,
                    "interpolation" : "LINEAR",
                    "output" : 36
                },
                {
                    "input" : 29,
                    "interpolation" : "LINEAR",
                    "output" : 37
                },
                {
                    "input" : 29,
                    "interpolation" : "LINEAR",
                    "output" : 38
                }
            ]
        },
        {
            "channels" : [
                {
                    "sampler" : 0,
                    "target" : {
                        "node" : 0,
                        "path" : "translation"
                    }
                },
                {
                    "sampler" : 1,
                    "target" : {
                        "node" : 0,
                        "path" : "rotation"
                    }
                },
                {
                    "sampler" : 2,
                    "target" : {
                        "node" : 0,
                        "path" : "scale"
                    }
                }
            ],
            "name" : "shoot",
            "samplers" : [
                {
                    "input" : 29,
                    "interpolation" : "LINEAR",
                    "output" : 39
                },
                {
                    "input" : 29,
                    "interpolation" : "LINEAR",
                    "output" : 40
                },
                {
                    "input" : 29,
                    "interpolation" : "LINEAR",
                    "output" : 41
                }
            ]
        }
    ],
    "materials" : [
        {
            "doubleSided" : true,
            "name" : "polishedMetal",
            "pbrMetallicRoughness" : {
                "baseColorFactor" : [
                    0.800000011920929,
                    0.800000011920929,
                    0.800000011920929,
                    1
                ],
                "metallicFactor" : 0,
                "roughnessFactor" : 0.5
            }
        },
        {
            "doubleSided" : true,
            "name" : "armor",
            "pbrMetallicRoughness" : {
                "baseColorFactor" : [
                    0.800000011920929,
                    0.800000011920929,
                    0.800000011920929,
                    1
                ],
                "metallicFactor" : 0,
                "roughnessFactor" : 0.5
            }
        },
        {
            "doubleSided" : true,
            "name" : "engine",
            "pbrMetallicRoughness" : {
                "baseColorFactor" : [
                    0.800000011920929,
                    0.800000011920929,
                    0.800000011920929,
                    1
                ],
                "metallicFactor" : 0,
                "roughnessFactor" : 0.5
            }
        },
        {
            "doubleSided" : true,
            "name" : "wings",
            "pbrMetallicRoughness" : {
                "baseColorFactor" : [
                    0.800000011920929,
                    0.800000011920929,
                    0.800000011920929,
                    1
                ],
                "metallicFactor" : 0,
                "roughnessFactor" : 0.5
            }
        }
    ],
    "meshes" : [
        {
            "name" : "Icosphere",
            "primitives" : [
                {
                    "attributes" : {
                        "POSITION" : 0,
                        "NORMAL" : 1,
                        "TEXCOORD_0" : 2,
                        "JOINTS_0" : 3,
                        "WEIGHTS_0" : 4
                    },
                    "indices" : 5,
                    "material" : 0
                },
                {
                    "attributes" : {
                        "POSITION" : 6,
                        "NORMAL" : 7,
                        "TEXCOORD_0" : 8,
                        "JOINTS_0" : 9,
                        "WEIGHTS_0" : 10
                    },
                    "indices" : 11,
                    "material" : 1
                },
                {
                    "attributes" : {
                        "POSITION" : 12,
                        "NORMAL" : 13,
                        "TEXCOORD_0" : 14,
                        "JOINTS_0" : 15,
                        "WEIGHTS_0" : 16
                    },
                    "indices" : 17,
                    "material" : 2
                },
                {
                    "attributes" : {
                        "POSITION" : 18,
                        "NORMAL" : 19,
                        "TEXCOORD_0" : 20,
                        "JOINTS_0" : 21,
                        "WEIGHTS_0" : 22
                    },
                    "indices" : 23,
                    "material" : 3
                }
            ]
        }
    ],
    "skins" : [
        {
            "inverseBindMatrices" : 24,
            "joints" : [
                0
            ],
            "name" : "root"
        }
    ],
    "accessors" : [
        {
            "bufferView" : 0,
            "componentType" : 5126,
            "count" : 152,
            "max" : [
                0.6503536701202393,
                0.7917872071266174,
                1.6466668844223022
            ],
            "min" : [
                -0.6503536701202393,
                0.1155388206243515,
                -1.229763388633728
            ],
            "type" : "VEC3"
        },
        {
            "bufferView" : 1,
            "componentType" : 5126,
            "count" : 152,
            "type" : "VEC3"
        },
        {
            "bufferView" : 2,
            "componentType" : 5126,
            "count" : 152,
            "type" : "VEC2"
        },
        {
            "bufferView" : 3,
            "componentType" : 5121,
            "count" : 152,
            "type" : "VEC4"
        },
        {
            "bufferView" : 4,
            "componentType" : 5126,
            "count" : 152,
            "type" : "VEC4"
        },
        {
            "bufferView" : 5,
            "componentType" : 5123,
            "count" : 216,
            "type" : "SCALAR"
        },
        {
            "bufferView" : 6,
            "componentType" : 5126,
            "count" : 304,
            "max" : [
                0.9737465977668762,
                1.1148055791854858,
                0.9672304391860962
            ],
            "min" : [
                -0.9737465977668762,
                0.10697107762098312,
                -1.1429786682128906
            ],
            "type" : "VEC3"
        },
        {
            "bufferView" : 7,
            "componentType" : 5126,
            "count" : 304,
            "type" : "VEC3"
        },
        {
            "bufferView" : 8,
            "componentType" : 5126,
            "count" : 304,
            "type" : "VEC2"
        },
        {
            "bufferView" : 9,
            "componentType" : 5121,
            "count" : 304,
            "type" : "VEC4"
        },
        {
            "bufferView" : 10,
            "componentType" : 5126,
            "count" : 304,
            "type" : "VEC4"
        },
        {
            "bufferView" : 11,
            "componentType" : 5123,
            "count" : 360,
            "type" : "SCALAR"
        },
        {
            "bufferView" : 12,
            "componentType" : 5126,
            "count" : 12,
            "max" : [
                0.5968422293663025,
                0.497988224029541,
                -0.836662232875824
            ],
            "min" : [
                -0.5968422293663025,
                0.17657768726348877,
                -1.1372313499450684
            ],
            "type" : "VEC3"
        },
        {
            "bufferView" : 13,
            "componentType" : 5126,
            "count" : 12,
            "type" : "VEC3"
        },
        {
            "bufferView" : 14,
            "componentType" : 5126,
            "count" : 12,
            "type" : "VEC2"
        },
        {
            "bufferView" : 15,
            "componentType" : 5121,
            "count" : 12,
            "type" : "VEC4"
        },
        {
            "bufferView" : 16,
            "componentType" : 5126,
            "count" : 12,
            "type" : "VEC4"
        },
        {
            "bufferView" : 17,
            "componentType" : 5123,
            "count" : 12,
            "type" : "SCALAR"
        },
        {
            "bufferView" : 18,
            "componentType" : 5126,
            "count" : 132,
            "max" : [
                1.3892736434936523,
                1.0026235580444336,
                0.8621683120727539
            ],
            "min" : [
                -1.3892736434936523,
                0.2861902117729187,
                -0.698076605796814
            ],
            "type" : "VEC3"
        },
        {
            "bufferView" : 19,
            "componentType" : 5126,
            "count" : 132,
            "type" : "VEC3"
        },
        {
            "bufferView" : 20,
            "componentType" : 5126,
            "count" : 132,
            "type" : "VEC2"
        },
        {
            "bufferView" : 21,
            "componentType" : 5121,
            "count" : 132,
            "type" : "VEC4"
        },
        {
            "bufferView" : 22,
            "componentType" : 5126,
            "count" : 132,
            "type" : "VEC4"
        },
        {
            "bufferView" : 23,
            "componentType" : 5123,
            "count" : 180,
            "type" : "SCALAR"
        },
        {
            "bufferView" : 24,
            "componentType" : 5126,
            "count" : 1,
            "type" : "MAT4"
        },
        {
            "bufferView" : 25,
            "componentType" : 5126,
            "count" : 30,
            "max" : [
                1.2083333333333333
            ],
            "min" : [
                0
            ],
            "type" : "SCALAR"
        },
        {
            "bufferView" : 26,
            "componentType" : 5126,
            "count" : 30,
            "type" : "VEC3"
        },
        {
            "bufferView" : 27,
            "componentType" : 5126,
            "count" : 30,
            "type" : "VEC4"
        },
        {
            "bufferView" : 28,
            "componentType" : 5126,
            "count" : 30,
            "type" : "VEC3"
        },
        {
            "bufferView" : 29,
            "componentType" : 5126,
            "count" : 31,
            "max" : [
                1.25
            ],
            "min" : [
                0
            ],
            "type" : "SCALAR"
        },
        {
            "bufferView" : 30,
            "componentType" : 5126,
            "count" : 31,
            "type" : "VEC3"
        },
        {
            "bufferView" : 31,
            "componentType" : 5126,
            "count" : 31,
            "type" : "VEC4"
        },
        {
            "bufferView" : 32,
            "componentType" : 5126,
            "count" : 31,
            "type" : "VEC3"
        },
        {
            "bufferView" : 33,
            "componentType" : 5126,
            "count" : 31,
            "type" : "VEC3"
        },
        {
            "bufferView" : 34,
            "componentType" : 5126,
            "count" : 31,
            "type" : "VEC4"
        },
        {
            "bufferView" : 35,
            "componentType" : 5126,
            "count" : 31,
            "type" : "VEC3"
        },
        {
            "bufferView" : 36,
            "componentType" : 5126,
            "count" : 31,
            "type" : "VEC3"
        },
        {
            "bufferView" : 37,
            "componentType" : 5126,
            "count" : 31,
            "type" : "VEC4"
        },
        {
            "bufferView" : 38,
            "componentType" : 5126,
            "count" : 31,
            "type" : "VEC3"
        },
        {
            "bufferView" : 39,
            "componentType" : 5126,
            "count" : 31,
            "type" : "VEC3"
        },
        {
            "bufferView" : 40,
            "componentType" : 5126,
            "count" : 31,
            "type" : "VEC4"
        },
        {
            "bufferView" : 41,
            "componentType" : 5126,
            "count" : 31,
            "type" : "VEC3"
        }
    ],
    "bufferViews" : [
        {
            "buffer" : 0,
            "byteLength" : 1824,
            "byteOffset" : 0
        },
        {
            "buffer" : 0,
            "byteLength" : 1824,
            "byteOffset" : 1824
        },
        {
            "buffer" : 0,
            "byteLength" : 1216,
            "byteOffset" : 3648
        },
        {
            "buffer" : 0,
            "byteLength" : 608,
            "byteOffset" : 4864
        },
        {
            "buffer" : 0,
            "byteLength" : 2432,
            "byteOffset" : 5472
        },
        {
            "buffer" : 0,
            "byteLength" : 432,
            "byteOffset" : 7904
        },
        {
            "buffer" : 0,
            "byteLength" : 3648,
            "byteOffset" : 8336
        },
        {
            "buffer" : 0,
            "byteLength" : 3648,
            "byteOffset" : 11984
        },
        {
            "buffer" : 0,
            "byteLength" : 2432,
            "byteOffset" : 15632
        },
        {
            "buffer" : 0,
            "byteLength" : 1216,
            "byteOffset" : 18064
        },
        {
            "buffer" : 0,
            "byteLength" : 4864,
            "byteOffset" : 19280
        },
        {
            "buffer" : 0,
            "byteLength" : 720,
            "byteOffset" : 24144
        },
        {
            "buffer" : 0,
            "byteLength" : 144,
            "byteOffset" : 24864
        },
        {
            "buffer" : 0,
            "byteLength" : 144,
            "byteOffset" : 25008
        },
        {
            "buffer" : 0,
            "byteLength" : 96,
            "byteOffset" : 25152
        },
        {
            "buffer" : 0,
            "byteLength" : 48,
            "byteOffset" : 25248
        },
        {
            "buffer" : 0,
            "byteLength" : 192,
            "byteOffset" : 25296
        },
        {
            "buffer" : 0,
            "byteLength" : 24,
            "byteOffset" : 25488
        },
        {
            "buffer" : 0,
            "byteLength" : 1584,
            "byteOffset" : 25512
        },
        {
            "buffer" : 0,
            "byteLength" : 1584,
            "byteOffset" : 27096
        },
        {
            "buffer" : 0,
            "byteLength" : 1056,
            "byteOffset" : 28680
        },
        {
            "buffer" : 0,
            "byteLength" : 528,
            "byteOffset" : 29736
        },
        {
            "buffer" : 0,
            "byteLength" : 2112,
            "byteOffset" : 30264
        },
        {
            "buffer" : 0,
            "byteLength" : 360,
            "byteOffset" : 32376
        },
        {
            "buffer" : 0,
            "byteLength" : 64,
            "byteOffset" : 32736
        },
        {
            "buffer" : 0,
            "byteLength" : 120,
            "byteOffset" : 32800
        },
        {
            "buffer" : 0,
            "byteLength" : 360,
            "byteOffset" : 32920
        },
        {
            "buffer" : 0,
            "byteLength" : 480,
            "byteOffset" : 33280
        },
        {
            "buffer" : 0,
            "byteLength" : 360,
            "byteOffset" : 33760
        },
        {
            "buffer" : 0,
            "byteLength" : 124,
            "byteOffset" : 34120
        },
        {
            "buffer" : 0,
            "byteLength" : 372,
            "byteOffset" : 34244
        },
        {
            "buffer" : 0,
            "byteLength" : 496,
            "byteOffset" : 34616
        },
        {
            "buffer" : 0,
            "byteLength" : 372,
            "byteOffset" : 35112
        },
        {
            "buffer" : 0,
            "byteLength" : 372,
            "byteOffset" : 35484
        },
        {
            "buffer" : 0,
            "byteLength" : 496,
            "byteOffset" : 35856
        },
        {
            "buffer" : 0,
            "byteLength" : 372,
            "byteOffset" : 36352
        },
        {
            "buffer" : 0,
            "byteLength" : 372,
            "byteOffset" : 36724
        },
        {
            "buffer" : 0,
            "byteLength" : 496,
            "byteOffset" : 37096
        },
        {
            "buffer" : 0,
            "byteLength" : 372,
            "byteOffset" : 37592
        },
        {
            "buffer" : 0,
            "byteLength" : 372,
            "byteOffset" : 37964
        },
        {
            "buffer" : 0,
            "byteLength" : 496,
            "byteOffset" : 38336
        },
        {
            "buffer" : 0,
            "byteLength" : 372,
            "byteOffset" : 38832
        }
    ],
    "buffers" : [
        {
            "byteLength" : 39204,
            "uri" : "data:application/octet-stream;base64,"
        }
    ]
}
