{
    "asset" : {
        "generator" : "Khronos glTF Blender I/O v1.6.16",
        "version" : "2.0"
    },
    "scene" : 0,
    "scenes" : [
        {
            "name" : "Scene",
            "nodes" : [
                0,
                1,
                2,
                3,
                4
            ]
        }
    ],
    "nodes" : [
        {
            "mesh" : 0,
            "name" : "hangarglow"
        },
        {
            "mesh" : 1,
            "name" : "hullarmor"
        },
        {
            "mesh" : 2,
            "name" : "chrome"
        },
        {
            "mesh" : 3,
            "name" : "engineglow"
        },
        {
            "mesh" : 4,
            "name" : "hullsecondary"
        }
    ],
    "materials" : [
        {
            "doubleSided" : true,
            "emissiveFactor" : [
                1,
                1,
                1
            ],
            "name" : "hangarglow",
            "pbrMetallicRoughness" : {}
        },
        {
            "doubleSided" : true,
            "emissiveFactor" : [
                1,
                1,
                1
            ],
            "name" : "hullarmor",
            "pbrMetallicRoughness" : {}
        },
        {
            "doubleSided" : true,
            "emissiveFactor" : [
                1,
                1,
                1
            ],
            "name" : "chrome",
            "pbrMetallicRoughness" : {}
        },
        {
            "doubleSided" : true,
            "emissiveFactor" : [
                1,
                1,
                1
            ],
            "name" : "engineglow",
            "pbrMetallicRoughness" : {}
        },
        {
            "doubleSided" : true,
            "emissiveFactor" : [
                1,
                1,
                1
            ],
            "name" : "hullsecondary",
            "pbrMetallicRoughness" : {}
        }
    ],
    "meshes" : [
        {
            "name" : "Cube.001",
            "primitives" : [
                {
                    "attributes" : {
                        "POSITION" : 0,
                        "NORMAL" : 1,
                        "TEXCOORD_0" : 2
                    },
                    "indices" : 3,
                    "material" : 0
                }
            ]
        },
        {
            "name" : "Cube.002",
            "primitives" : [
                {
                    "attributes" : {
                        "POSITION" : 4,
                        "NORMAL" : 5,
                        "TEXCOORD_0" : 6
                    },
                    "indices" : 7,
                    "material" : 1
                }
            ]
        },
        {
            "name" : "Cube.003",
            "primitives" : [
                {
                    "attributes" : {
                        "POSITION" : 8,
                        "NORMAL" : 9,
                        "TEXCOORD_0" : 10
                    },
                    "indices" : 11,
                    "material" : 2
                }
            ]
        },
        {
            "name" : "Cube.004",
            "primitives" : [
                {
                    "attributes" : {
                        "POSITION" : 12,
                        "NORMAL" : 13,
                        "TEXCOORD_0" : 14
                    },
                    "indices" : 15,
                    "material" : 3
                }
            ]
        },
        {
            "name" : "Cube.005",
            "primitives" : [
                {
                    "attributes" : {
                        "POSITION" : 16,
                        "NORMAL" : 17,
                        "TEXCOORD_0" : 18
                    },
                    "indices" : 19,
                    "material" : 4
                }
            ]
        }
    ],
    "accessors" : [
        {
            "bufferView" : 0,
            "componentType" : 5126,
            "count" : 24,
            "max" : [
                2.0309276580810547,
                1.7209036350250244,
                -1.019431233406067
            ],
            "min" : [
                -2.0309276580810547,
                0.32163095474243164,
                -1.078336238861084
            ],
            "type" : "VEC3"
        },
        {
            "bufferView" : 1,
            "componentType" : 5126,
            "count" : 24,
            "type" : "VEC3"
        },
        {
            "bufferView" : 2,
            "componentType" : 5126,
            "count" : 24,
            "type" : "VEC2"
        },
        {
            "bufferView" : 3,
            "componentType" : 5123,
            "count" : 36,
            "type" : "SCALAR"
        },
        {
            "bufferView" : 4,
            "componentType" : 5126,
            "count" : 734,
            "max" : [
                8.648979187011719,
                6.3817524909973145,
                12.790502548217773
            ],
            "min" : [
                -8.648979187011719,
                -0.1981964111328125,
                -11.699101448059082
            ],
            "type" : "VEC3"
        },
        {
            "bufferView" : 5,
            "componentType" : 5126,
            "count" : 734,
            "type" : "VEC3"
        },
        {
            "bufferView" : 6,
            "componentType" : 5126,
            "count" : 734,
            "type" : "VEC2"
        },
        {
            "bufferView" : 7,
            "componentType" : 5123,
            "count" : 1104,
            "type" : "SCALAR"
        },
        {
            "bufferView" : 8,
            "componentType" : 5126,
            "count" : 122,
            "max" : [
                8.52535629272461,
                4.145500659942627,
                -8.329879760742188
            ],
            "min" : [
                -8.52535629272461,
                0.9172935485839844,
                -11.461137771606445
            ],
            "type" : "VEC3"
        },
        {
            "bufferView" : 9,
            "componentType" : 5126,
            "count" : 122,
            "type" : "VEC3"
        },
        {
            "bufferView" : 10,
            "componentType" : 5126,
            "count" : 122,
            "type" : "VEC2"
        },
        {
            "bufferView" : 11,
            "componentType" : 5123,
            "count" : 186,
            "type" : "SCALAR"
        },
        {
            "bufferView" : 12,
            "componentType" : 5126,
            "count" : 24,
            "max" : [
                8.150651931762695,
                3.995342493057251,
                -8.464692115783691
            ],
            "min" : [
                -8.150651931762695,
                1.0765224695205688,
                -10.586243629455566
            ],
            "type" : "VEC3"
        },
        {
            "bufferView" : 13,
            "componentType" : 5126,
            "count" : 24,
            "type" : "VEC3"
        },
        {
            "bufferView" : 14,
            "componentType" : 5126,
            "count" : 24,
            "type" : "VEC2"
        },
        {
            "bufferView" : 15,
            "componentType" : 5123,
            "count" : 36,
            "type" : "SCALAR"
        },
        {
            "bufferView" : 16,
            "componentType" : 5126,
            "count" : 160,
            "max" : [
                5.218405723571777,
                3.3559675216674805,
                -2.4246222972869873
            ],
            "min" : [
                -5.218405723571777,
                -0.0837855339050293,
                -8.820367813110352
            ],
            "type" : "VEC3"
        },
        {
            "bufferView" : 17,
            "componentType" : 5126,
            "count" : 160,
            "type" : "VEC3"
        },
        {
            "bufferView" : 18,
            "componentType" : 5126,
            "count" : 160,
            "type" : "VEC2"
        },
        {
            "bufferView" : 19,
            "componentType" : 5123,
            "count" : 240,
            "type" : "SCALAR"
        }
    ],
    "bufferViews" : [
        {
            "buffer" : 0,
            "byteLength" : 288,
            "byteOffset" : 0
        },
        {
            "buffer" : 0,
            "byteLength" : 288,
            "byteOffset" : 288
        },
        {
            "buffer" : 0,
            "byteLength" : 192,
            "byteOffset" : 576
        },
        {
            "buffer" : 0,
            "byteLength" : 72,
            "byteOffset" : 768
        },
        {
            "buffer" : 0,
            "byteLength" : 8808,
            "byteOffset" : 840
        },
        {
            "buffer" : 0,
            "byteLength" : 8808,
            "byteOffset" : 9648
        },
        {
            "buffer" : 0,
            "byteLength" : 5872,
            "byteOffset" : 18456
        },
        {
            "buffer" : 0,
            "byteLength" : 2208,
            "byteOffset" : 24328
        },
        {
            "buffer" : 0,
            "byteLength" : 1464,
            "byteOffset" : 26536
        },
        {
            "buffer" : 0,
            "byteLength" : 1464,
            "byteOffset" : 28000
        },
        {
            "buffer" : 0,
            "byteLength" : 976,
            "byteOffset" : 29464
        },
        {
            "buffer" : 0,
            "byteLength" : 372,
            "byteOffset" : 30440
        },
        {
            "buffer" : 0,
            "byteLength" : 288,
            "byteOffset" : 30812
        },
        {
            "buffer" : 0,
            "byteLength" : 288,
            "byteOffset" : 31100
        },
        {
            "buffer" : 0,
            "byteLength" : 192,
            "byteOffset" : 31388
        },
        {
            "buffer" : 0,
            "byteLength" : 72,
            "byteOffset" : 31580
        },
        {
            "buffer" : 0,
            "byteLength" : 1920,
            "byteOffset" : 31652
        },
        {
            "buffer" : 0,
            "byteLength" : 1920,
            "byteOffset" : 33572
        },
        {
            "buffer" : 0,
            "byteLength" : 1280,
            "byteOffset" : 35492
        },
        {
            "buffer" : 0,
            "byteLength" : 480,
            "byteOffset" : 36772
        }
    ],
    "buffers" : [
        {
            "byteLength" : 37252,
            "uri" : "data:application/octet-stream;base64,"
        }
    ]
}
