{
    "asset" : {
        "generator" : "Khronos glTF Blender I/O v1.7.33",
        "version" : "2.0"
    },
    "scene" : 0,
    "scenes" : [
        {
            "name" : "Scene",
            "nodes" : [
                2
            ]
        }
    ],
    "nodes" : [
        {
            "name" : "Bone",
            "rotation" : [
                0.00923190452158451,
                0.13286252319812775,
                -0.68343585729599,
                0.71775883436203
            ],
            "scale" : [
                1.000000238418579,
                1.0000001192092896,
                0.9999999403953552
            ],
            "translation" : [
                -0.4321027994155884,
                0.04307079315185547,
                0.7321374416351318
            ]
        },
        {
            "mesh" : 0,
            "name" : "mace",
            "skin" : 0
        },
        {
            "children" : [
                1,
                0
            ],
            "name" : "weaponArmature",
            "scale" : [
                0.20905423164367676,
                0.20905423164367676,
                0.20905423164367676
            ],
            "translation" : [
                0.3912772834300995,
                0.41827380657196045,
                -0.2558671236038208
            ]
        }
    ],
    "materials" : [
        {
            "doubleSided" : true,
            "name" : "Material",
            "pbrMetallicRoughness" : {
                "baseColorTexture" : {
                    "index" : 0
                },
                "metallicFactor" : 0.800000011920929,
                "roughnessFactor" : 0.699999988079071
            }
        }
    ],
    "meshes" : [
        {
            "name" : "Cube.004",
            "primitives" : [
                {
                    "attributes" : {
                        "POSITION" : 0,
                        "NORMAL" : 1,
                        "TEXCOORD_0" : 2,
                        "COLOR_0" : 3,
                        "JOINTS_0" : 4,
                        "WEIGHTS_0" : 5
                    },
                    "indices" : 6,
                    "material" : 0
                }
            ]
        }
    ],
    "textures" : [
        {
            "sampler" : 0,
            "source" : 0
        }
    ],
    "images" : [
        {
            "bufferView" : 7,
            "mimeType" : "image/png",
            "name" : "palette"
        }
    ],
    "skins" : [
        {
            "inverseBindMatrices" : 7,
            "joints" : [
                0
            ],
            "name" : "weaponArmature"
        }
    ],
    "accessors" : [
        {
            "bufferView" : 0,
            "componentType" : 5126,
            "count" : 554,
            "max" : [
                0.5522544384002686,
                0.6759781837463379,
                1.5192853212356567
            ],
            "min" : [
                0.23249228298664093,
                0.2963770925998688,
                -0.3610817492008209
            ],
            "type" : "VEC3"
        },
        {
            "bufferView" : 1,
            "componentType" : 5126,
            "count" : 554,
            "type" : "VEC3"
        },
        {
            "bufferView" : 2,
            "componentType" : 5126,
            "count" : 554,
            "type" : "VEC2"
        },
        {
            "bufferView" : 3,
            "componentType" : 5123,
            "count" : 554,
            "normalized" : true,
            "type" : "VEC4"
        },
        {
            "bufferView" : 4,
            "componentType" : 5121,
            "count" : 554,
            "type" : "VEC4"
        },
        {
            "bufferView" : 5,
            "componentType" : 5126,
            "count" : 554,
            "type" : "VEC4"
        },
        {
            "bufferView" : 6,
            "componentType" : 5123,
            "count" : 1008,
            "type" : "SCALAR"
        },
        {
            "bufferView" : 8,
            "componentType" : 5126,
            "count" : 1,
            "type" : "MAT4"
        }
    ],
    "bufferViews" : [
        {
            "buffer" : 0,
            "byteLength" : 6648,
            "byteOffset" : 0
        },
        {
            "buffer" : 0,
            "byteLength" : 6648,
            "byteOffset" : 6648
        },
        {
            "buffer" : 0,
            "byteLength" : 4432,
            "byteOffset" : 13296
        },
        {
            "buffer" : 0,
            "byteLength" : 4432,
            "byteOffset" : 17728
        },
        {
            "buffer" : 0,
            "byteLength" : 2216,
            "byteOffset" : 22160
        },
        {
            "buffer" : 0,
            "byteLength" : 8864,
            "byteOffset" : 24376
        },
        {
            "buffer" : 0,
            "byteLength" : 2016,
            "byteOffset" : 33240
        },
        {
            "buffer" : 0,
            "byteLength" : 174,
            "byteOffset" : 35256
        },
        {
            "buffer" : 0,
            "byteLength" : 64,
            "byteOffset" : 35432
        }
    ],
    "samplers" : [
        {
            "magFilter" : 9728,
            "minFilter" : 9984
        }
    ],
    "buffers" : [
        {
            "byteLength" : 35496,
            "uri" : "data:application/octet-stream;base64,"
        }
    ]
}
