{
    "asset" : {
        "generator" : "Khronos glTF Blender I/O v1.7.33",
        "version" : "2.0"
    },
    "scene" : 0,
    "scenes" : [
        {
            "name" : "Scene",
            "nodes" : [
                0,
                1
            ]
        }
    ],
    "nodes" : [
        {
            "mesh" : 0,
            "name" : "Cube",
            "scale" : [
                0.9493324160575867,
                0.5409965515136719,
                0.934026837348938
            ]
        },
        {
            "name" : "Cube.001",
            "scale" : [
                6.248366355895996,
                1,
                2.9491755962371826
            ],
            "translation" : [
                0,
                3.0279486179351807,
                0
            ]
        }
    ],
    "materials" : [
        {
            "doubleSided" : true,
            "name" : "Material",
            "pbrMetallicRoughness" : {
                "baseColorFactor" : [
                    0.800000011920929,
                    0.800000011920929,
                    0.800000011920929,
                    1
                ],
                "metallicFactor" : 0,
                "roughnessFactor" : 0.4000000059604645
            }
        }
    ],
    "meshes" : [
        {
            "name" : "Cube",
            "primitives" : [
                {
                    "attributes" : {
                        "POSITION" : 0,
                        "NORMAL" : 1,
                        "TEXCOORD_0" : 2
                    },
                    "indices" : 3,
                    "material" : 0
                }
            ]
        }
    ],
    "accessors" : [
        {
            "bufferView" : 0,
            "componentType" : 5126,
            "count" : 2962,
            "max" : [
                23.16801643371582,
                22.31589126586914,
                6.052549839019775
            ],
            "min" : [
                -23.16801643371582,
                -21.10689353942871,
                -10.13697624206543
            ],
            "type" : "VEC3"
        },
        {
            "bufferView" : 1,
            "componentType" : 5126,
            "count" : 2962,
            "type" : "VEC3"
        },
        {
            "bufferView" : 2,
            "componentType" : 5126,
            "count" : 2962,
            "type" : "VEC2"
        },
        {
            "bufferView" : 3,
            "componentType" : 5123,
            "count" : 4530,
            "type" : "SCALAR"
        }
    ],
    "bufferViews" : [
        {
            "buffer" : 0,
            "byteLength" : 35544,
            "byteOffset" : 0
        },
        {
            "buffer" : 0,
            "byteLength" : 35544,
            "byteOffset" : 35544
        },
        {
            "buffer" : 0,
            "byteLength" : 23696,
            "byteOffset" : 71088
        },
        {
            "buffer" : 0,
            "byteLength" : 9060,
            "byteOffset" : 94784
        }
    ],
    "buffers" : [
        {
            "byteLength" : 103844,
            "uri" : "data:application/octet-stream;base64,"
        }
    ]
}
