{
    "asset" : {
        "generator" : "Khronos glTF Blender I/O v1.7.33",
        "version" : "2.0"
    },
    "scene" : 0,
    "scenes" : [
        {
            "name" : "Scene",
            "nodes" : [
                16
            ]
        }
    ],
    "nodes" : [
        {
            "name" : "head",
            "translation" : [
                0,
                1.8896632194519043,
                0
            ]
        },
        {
            "name" : "hand.L",
            "rotation" : [
                -0.0695667713880539,
                -0.0026650847867131233,
                -0.03818869963288307,
                0.996842622756958
            ],
            "translation" : [
                -2.5331974029541016e-07,
                1.6885279417037964,
                -1.3715521163248923e-08
            ]
        },
        {
            "children" : [
                1
            ],
            "name" : "lowerArm.L",
            "rotation" : [
                0.13348029553890228,
                -0.00032915393239818513,
                -0.06332100927829742,
                0.9890264868736267
            ],
            "scale" : [
                1,
                1,
                0.9999999403953552
            ],
            "translation" : [
                -5.796963975512881e-08,
                1.8237929344177246,
                -1.301152963151253e-08
            ]
        },
        {
            "name" : "upperArm.L.001",
            "rotation" : [
                0.7511978149414062,
                5.690830917615131e-09,
                5.856250240299232e-08,
                0.6600772738456726
            ],
            "scale" : [
                1,
                0.9999999403953552,
                0.9999999403953552
            ],
            "translation" : [
                2.006565296142071e-07,
                1.8237930536270142,
                6.71458479928333e-08
            ]
        },
        {
            "children" : [
                2,
                3
            ],
            "name" : "upperArm.L",
            "rotation" : [
                -0.01584397815167904,
                0.06245359778404236,
                -0.9672807455062866,
                0.2453906387090683
            ],
            "scale" : [
                0.999998927116394,
                0.9999998807907104,
                0.9999999403953552
            ],
            "translation" : [
                1.4282915592193604,
                1.2986161708831787,
                -6.408244956901399e-08
            ]
        },
        {
            "name" : "hand.R",
            "rotation" : [
                -0.0695667713880539,
                0.0026650847867131233,
                0.03818869963288307,
                0.996842622756958
            ],
            "translation" : [
                2.5331974029541016e-07,
                1.6885279417037964,
                -1.3715521163248923e-08
            ]
        },
        {
            "children" : [
                5
            ],
            "name" : "lowerArm.R",
            "rotation" : [
                0.13348029553890228,
                0.00032915393239818513,
                0.06332100927829742,
                0.9890264868736267
            ],
            "scale" : [
                1,
                1,
                0.9999999403953552
            ],
            "translation" : [
                5.796963975512881e-08,
                1.8237929344177246,
                -1.301152963151253e-08
            ]
        },
        {
            "name" : "upperArm.R.001",
            "rotation" : [
                0.7511978149414062,
                -5.690830917615131e-09,
                -5.856250240299232e-08,
                0.6600772738456726
            ],
            "scale" : [
                1,
                0.9999999403953552,
                0.9999999403953552
            ],
            "translation" : [
                -2.006565296142071e-07,
                1.8237930536270142,
                8.192328238010305e-08
            ]
        },
        {
            "children" : [
                6,
                7
            ],
            "name" : "upperArm.R",
            "rotation" : [
                -0.01584397815167904,
                -0.06245359778404236,
                0.9672807455062866,
                0.2453906387090683
            ],
            "scale" : [
                0.999998927116394,
                0.9999998807907104,
                0.9999999403953552
            ],
            "translation" : [
                -1.4282915592193604,
                1.2986161708831787,
                -3.452757368904713e-08
            ]
        },
        {
            "children" : [
                0,
                4,
                8
            ],
            "name" : "torso",
            "translation" : [
                0,
                1.4288597106933594,
                0
            ]
        },
        {
            "name" : "lowerLeg.L",
            "rotation" : [
                0.10155708342790604,
                -0.00013327135820873082,
                0.020642807707190514,
                0.9946156144142151
            ],
            "scale" : [
                1,
                1,
                0.9999999403953552
            ],
            "translation" : [
                -4.766056704852417e-08,
                2.6886839866638184,
                1.4818412807926507e-07
            ]
        },
        {
            "children" : [
                10
            ],
            "name" : "upperLeg.L",
            "rotation" : [
                0.9983602166175842,
                0.0187778752297163,
                0.0010176640935242176,
                0.05406893417239189
            ],
            "scale" : [
                0.9999995231628418,
                0.9999998807907104,
                0.999995768070221
            ],
            "translation" : [
                0.7212811708450317,
                -0.4374220073223114,
                -3.6065728181711165e-08
            ]
        },
        {
            "name" : "lowerLeg.R",
            "rotation" : [
                0.10155708342790604,
                0.00013327135820873082,
                -0.020642807707190514,
                0.9946156144142151
            ],
            "scale" : [
                1,
                1,
                0.9999999403953552
            ],
            "translation" : [
                4.789468022181609e-08,
                2.6886839866638184,
                8.9808992242979e-08
            ]
        },
        {
            "children" : [
                12
            ],
            "name" : "upperLeg.R",
            "rotation" : [
                0.9983602166175842,
                -0.0187778752297163,
                -0.0010176640935242176,
                0.05406893417239189
            ],
            "scale" : [
                0.9999995231628418,
                0.9999998807907104,
                0.999995768070221
            ],
            "translation" : [
                -0.7212811708450317,
                -0.4374220371246338,
                4.187729274462981e-09
            ]
        },
        {
            "children" : [
                9,
                11,
                13
            ],
            "name" : "Bone"
        },
        {
            "mesh" : 0,
            "name" : "mech",
            "skin" : 0
        },
        {
            "children" : [
                15,
                14
            ],
            "name" : "armature",
            "translation" : [
                0,
                6.502584934234619,
                0
            ]
        }
    ],
    "materials" : [
        {
            "emissiveFactor" : [
                1,
                1,
                1
            ],
            "emissiveTexture" : {
                "index" : 0
            },
            "name" : "head",
            "pbrMetallicRoughness" : {}
        },
        {
            "doubleSided" : true,
            "emissiveFactor" : [
                1,
                1,
                1
            ],
            "emissiveTexture" : {
                "index" : 1
            },
            "name" : "torso",
            "pbrMetallicRoughness" : {}
        },
        {
            "doubleSided" : true,
            "emissiveFactor" : [
                1,
                1,
                1
            ],
            "emissiveTexture" : {
                "index" : 2
            },
            "name" : "arms",
            "pbrMetallicRoughness" : {}
        },
        {
            "doubleSided" : true,
            "emissiveFactor" : [
                1,
                1,
                1
            ],
            "emissiveTexture" : {
                "index" : 3
            },
            "name" : "legs",
            "pbrMetallicRoughness" : {}
        }
    ],
    "meshes" : [
        {
            "name" : "Cube.002",
            "primitives" : [
                {
                    "attributes" : {
                        "POSITION" : 0,
                        "NORMAL" : 1,
                        "TEXCOORD_0" : 2,
                        "JOINTS_0" : 3,
                        "WEIGHTS_0" : 4
                    },
                    "indices" : 5,
                    "material" : 0
                },
                {
                    "attributes" : {
                        "POSITION" : 6,
                        "NORMAL" : 7,
                        "TEXCOORD_0" : 8,
                        "JOINTS_0" : 9,
                        "WEIGHTS_0" : 10
                    },
                    "indices" : 11,
                    "material" : 1
                },
                {
                    "attributes" : {
                        "POSITION" : 12,
                        "NORMAL" : 13,
                        "TEXCOORD_0" : 14,
                        "JOINTS_0" : 15,
                        "WEIGHTS_0" : 16
                    },
                    "indices" : 17,
                    "material" : 2
                },
                {
                    "attributes" : {
                        "POSITION" : 18,
                        "NORMAL" : 19,
                        "TEXCOORD_0" : 20,
                        "JOINTS_0" : 21,
                        "WEIGHTS_0" : 22
                    },
                    "indices" : 23,
                    "material" : 3
                }
            ]
        }
    ],
    "textures" : [
        {
            "sampler" : 0,
            "source" : 0
        },
        {
            "sampler" : 0,
            "source" : 1
        },
        {
            "sampler" : 0,
            "source" : 2
        },
        {
            "sampler" : 0,
            "source" : 3
        }
    ],
    "images" : [
        {
            "bufferView" : 6,
            "mimeType" : "image/png",
            "name" : "headAlbedo"
        },
        {
            "bufferView" : 13,
            "mimeType" : "image/png",
            "name" : "bodyAlbedo"
        },
        {
            "bufferView" : 20,
            "mimeType" : "image/png",
            "name" : "armsAlbedo"
        },
        {
            "bufferView" : 27,
            "mimeType" : "image/png",
            "name" : "legsAlbedo"
        }
    ],
    "skins" : [
        {
            "inverseBindMatrices" : 24,
            "joints" : [
                14,
                9,
                0,
                4,
                2,
                1,
                3,
                8,
                6,
                5,
                7,
                11,
                10,
                13,
                12
            ],
            "name" : "armature"
        }
    ],
    "accessors" : [
        {
            "bufferView" : 0,
            "componentType" : 5126,
            "count" : 254,
            "max" : [
                2.0337727069854736,
                11.878440856933594,
                0.858464241027832
            ],
            "min" : [
                -2.0337727069854736,
                9.769233703613281,
                -1.4568231105804443
            ],
            "type" : "VEC3"
        },
        {
            "bufferView" : 1,
            "componentType" : 5126,
            "count" : 254,
            "type" : "VEC3"
        },
        {
            "bufferView" : 2,
            "componentType" : 5126,
            "count" : 254,
            "type" : "VEC2"
        },
        {
            "bufferView" : 3,
            "componentType" : 5121,
            "count" : 254,
            "type" : "VEC4"
        },
        {
            "bufferView" : 4,
            "componentType" : 5126,
            "count" : 254,
            "type" : "VEC4"
        },
        {
            "bufferView" : 5,
            "componentType" : 5123,
            "count" : 378,
            "type" : "SCALAR"
        },
        {
            "bufferView" : 7,
            "componentType" : 5126,
            "count" : 894,
            "max" : [
                2.9190244674682617,
                9.987907409667969,
                0.8073213696479797
            ],
            "min" : [
                -2.9190244674682617,
                2.8059542179107666,
                -3.007530689239502
            ],
            "type" : "VEC3"
        },
        {
            "bufferView" : 8,
            "componentType" : 5126,
            "count" : 894,
            "type" : "VEC3"
        },
        {
            "bufferView" : 9,
            "componentType" : 5126,
            "count" : 894,
            "type" : "VEC2"
        },
        {
            "bufferView" : 10,
            "componentType" : 5121,
            "count" : 894,
            "type" : "VEC4"
        },
        {
            "bufferView" : 11,
            "componentType" : 5126,
            "count" : 894,
            "type" : "VEC4"
        },
        {
            "bufferView" : 12,
            "componentType" : 5123,
            "count" : 1350,
            "type" : "SCALAR"
        },
        {
            "bufferView" : 14,
            "componentType" : 5126,
            "count" : 460,
            "max" : [
                3.3161988258361816,
                9.660900115966797,
                0.8218323588371277
            ],
            "min" : [
                -3.3161988258361816,
                5.3418989181518555,
                -0.3771248161792755
            ],
            "type" : "VEC3"
        },
        {
            "bufferView" : 15,
            "componentType" : 5126,
            "count" : 460,
            "type" : "VEC3"
        },
        {
            "bufferView" : 16,
            "componentType" : 5126,
            "count" : 460,
            "type" : "VEC2"
        },
        {
            "bufferView" : 17,
            "componentType" : 5121,
            "count" : 460,
            "type" : "VEC4"
        },
        {
            "bufferView" : 18,
            "componentType" : 5126,
            "count" : 460,
            "type" : "VEC4"
        },
        {
            "bufferView" : 19,
            "componentType" : 5123,
            "count" : 672,
            "type" : "SCALAR"
        },
        {
            "bufferView" : 21,
            "componentType" : 5126,
            "count" : 236,
            "max" : [
                1.6511826515197754,
                6.333328723907471,
                0.7474840879440308
            ],
            "min" : [
                -1.6511826515197754,
                0.057854652404785156,
                -0.7238422632217407
            ],
            "type" : "VEC3"
        },
        {
            "bufferView" : 22,
            "componentType" : 5126,
            "count" : 236,
            "type" : "VEC3"
        },
        {
            "bufferView" : 23,
            "componentType" : 5126,
            "count" : 236,
            "type" : "VEC2"
        },
        {
            "bufferView" : 24,
            "componentType" : 5121,
            "count" : 236,
            "type" : "VEC4"
        },
        {
            "bufferView" : 25,
            "componentType" : 5126,
            "count" : 236,
            "type" : "VEC4"
        },
        {
            "bufferView" : 26,
            "componentType" : 5123,
            "count" : 336,
            "type" : "SCALAR"
        },
        {
            "bufferView" : 28,
            "componentType" : 5126,
            "count" : 15,
            "type" : "MAT4"
        }
    ],
    "bufferViews" : [
        {
            "buffer" : 0,
            "byteLength" : 3048,
            "byteOffset" : 0
        },
        {
            "buffer" : 0,
            "byteLength" : 3048,
            "byteOffset" : 3048
        },
        {
            "buffer" : 0,
            "byteLength" : 2032,
            "byteOffset" : 6096
        },
        {
            "buffer" : 0,
            "byteLength" : 1016,
            "byteOffset" : 8128
        },
        {
            "buffer" : 0,
            "byteLength" : 4064,
            "byteOffset" : 9144
        },
        {
            "buffer" : 0,
            "byteLength" : 756,
            "byteOffset" : 13208
        },
        {
            "buffer" : 0,
            "byteLength" : 7199,
            "byteOffset" : 13964
        },
        {
            "buffer" : 0,
            "byteLength" : 10728,
            "byteOffset" : 21164
        },
        {
            "buffer" : 0,
            "byteLength" : 10728,
            "byteOffset" : 31892
        },
        {
            "buffer" : 0,
            "byteLength" : 7152,
            "byteOffset" : 42620
        },
        {
            "buffer" : 0,
            "byteLength" : 3576,
            "byteOffset" : 49772
        },
        {
            "buffer" : 0,
            "byteLength" : 14304,
            "byteOffset" : 53348
        },
        {
            "buffer" : 0,
            "byteLength" : 2700,
            "byteOffset" : 67652
        },
        {
            "buffer" : 0,
            "byteLength" : 8980,
            "byteOffset" : 70352
        },
        {
            "buffer" : 0,
            "byteLength" : 5520,
            "byteOffset" : 79332
        },
        {
            "buffer" : 0,
            "byteLength" : 5520,
            "byteOffset" : 84852
        },
        {
            "buffer" : 0,
            "byteLength" : 3680,
            "byteOffset" : 90372
        },
        {
            "buffer" : 0,
            "byteLength" : 1840,
            "byteOffset" : 94052
        },
        {
            "buffer" : 0,
            "byteLength" : 7360,
            "byteOffset" : 95892
        },
        {
            "buffer" : 0,
            "byteLength" : 1344,
            "byteOffset" : 103252
        },
        {
            "buffer" : 0,
            "byteLength" : 1239,
            "byteOffset" : 104596
        },
        {
            "buffer" : 0,
            "byteLength" : 2832,
            "byteOffset" : 105836
        },
        {
            "buffer" : 0,
            "byteLength" : 2832,
            "byteOffset" : 108668
        },
        {
            "buffer" : 0,
            "byteLength" : 1888,
            "byteOffset" : 111500
        },
        {
            "buffer" : 0,
            "byteLength" : 944,
            "byteOffset" : 113388
        },
        {
            "buffer" : 0,
            "byteLength" : 3776,
            "byteOffset" : 114332
        },
        {
            "buffer" : 0,
            "byteLength" : 672,
            "byteOffset" : 118108
        },
        {
            "buffer" : 0,
            "byteLength" : 991,
            "byteOffset" : 118780
        },
        {
            "buffer" : 0,
            "byteLength" : 960,
            "byteOffset" : 119772
        }
    ],
    "samplers" : [
        {
            "magFilter" : 9728,
            "minFilter" : 9984
        }
    ],
    "buffers" : [
        {
            "byteLength" : 120732,
            "uri" : "data:application/octet-stream;base64,"
        }
    ]
}
